<?xml version="1.0" encoding="UTF-8"?>
<svg id="Layer_2" data-name="Layer 2" xmlns="http://www.w3.org/2000/svg" viewBox="0 0 1437.25 839.69">
  <defs>
    <style>
      .cls-1, .cls-2, .cls-3 {
        fill: #d7d7d9;
      }

      .cls-1, .cls-2, .cls-4 {
        font-family: CascadiaCode-Regular, 'Cascadia Code';
      }

      .cls-1, .cls-5 {
        font-size: 13px;
      }

      .cls-1, .cls-5, .cls-4 {
        isolation: isolate;
      }

      .cls-6 {
        fill: #222;
      }

      .cls-6, .cls-7, .cls-8, .cls-9, .cls-10, .cls-3 {
        stroke-width: 0px;
      }

      .cls-7 {
        fill: #37383f;
      }

      .cls-2 {
        font-size: 29.33px;
      }

      .cls-5 {
        fill: #999;
        font-family: CascadiaCode-Italic, 'Cascadia Code';
        font-style: italic;
        font-variation-settings: 'wght' 400;
      }

      .cls-11 {
        fill: none;
        stroke: #f4f4f4;
      }

      .cls-8 {
        fill: #666;
      }

      .cls-9 {
        fill: #2b2b2b;
      }

      .cls-10 {
        fill: #e8e8e8;
      }

      .cls-4 {
        fill: #fff;
        font-size: 14px;
      }
    </style>
  </defs>
  <g id="Layer_1-2" data-name="Layer 1">
    <g>
      <path class="cls-9" d="M0,67.41h1437.25v742.28c0,16.56-13.44,30-30,30H30c-16.56,0-30-13.44-30-30V67.41h0Z"/>
      <path class="cls-6" d="M30,0h1377.25c16.56,0,30,13.44,30,30v37.41H0V30C0,13.44,13.44,0,30,0Z"/>
    </g>
    <path class="cls-11" d="M783.7,179.45h-193c-6.67,0-10,3.33-10,10v34.45c0,6.67-3.33,10-10,10h-193,193c6.67,0,10-3.33,10-10v-34.45c0-6.67,3.33-10,10-10h193ZM773.7,175.45v8M377.69,229.9l10,4-10,4"/>
    <text class="cls-4" transform="translate(769.88 165.9)"><tspan x="0" y="0">1</tspan></text>
    <text class="cls-4" transform="translate(385.91 227.47)"><tspan x="0" y="0">*</tspan></text>
    <path class="cls-11" d="M112,658.34h-45.24c-6.67,0-10-3.33-10-10v-372.44c0-6.67,3.33-10,10-10h45.24-45.24c-6.67,0-10,3.33-10,10v372.44c0,6.67,3.33,10,10,10h45.24ZM102,654.34v8M112,261.9l-10,4,10,4"/>
    <text class="cls-4" transform="translate(98.02 646.51)"><tspan x="0" y="0">1</tspan></text>
    <text class="cls-4" transform="translate(94.29 260.15)"><tspan x="0" y="0">*</tspan></text>
    <path class="cls-11" d="M463.24,577.21h-32.78c-6.67,0-10-3.33-10-10v-67.31c0-6.67-3.33-10-10-10h-32.78,32.78c6.67,0,10,3.33,10,10v67.31c0,6.67,3.33,10,10,10h32.78ZM453.24,573.21v8M377.69,485.9l10,4-10,4"/>
    <text class="cls-4" transform="translate(449.66 563.82)"><tspan x="0" y="0">1</tspan></text>
    <text class="cls-4" transform="translate(387.69 483.9)"><tspan x="0" y="0">*</tspan></text>
    <path class="cls-11" d="M377.69,169.9h95.27c6.67,0,10,3.33,10,10v232.14c0,6.67,3.33,10,10,10h207.24c6.67,0,10,3.33,10,10v104.06c0,6.67,3.33,10,10,10h49.68-49.68c-6.67,0-10-3.33-10-10v-104.06c0-6.67-3.33-10-10-10h-207.24c-6.67,0-10-3.33-10-10v-232.14c0-6.67-3.33-10-10-10h-95.27ZM387.69,165.9v8M769.88,542.1l-10,4,10,4"/>
    <text class="cls-4" transform="translate(383.85 156.2)"><tspan x="0" y="0">1</tspan></text>
    <text class="cls-4" transform="translate(751.76 539.7)"><tspan x="0" y="0">*</tspan></text>
    <path class="cls-11" d="M675.79,577.21h20-21.09c-.3,0-.3,0,0,0l74.74.88c.3,0,.59,0,.89,0h19.55-19.55c-.3,0-.59,0-.89,0l-74.74-.88c-.3,0-.3,0,0,0h21.09-20ZM685.79,573.21v8M769.88,574.1l-10,4,10,4"/>
    <text class="cls-4" transform="translate(681.92 564.81)"><tspan x="0" y="0">1</tspan></text>
    <text class="cls-4" transform="translate(751.01 573.21)"><tspan x="0" y="0">*</tspan></text>
    <path class="cls-11" d="M1150.44,179.45h-37.19c-6.67,0-10,3.33-10,10v410.65c0,6.67-3.33,10-10,10h-37.19,37.19c6.67,0,10-3.33,10-10V189.45c0-6.67,3.33-10,10-10h37.19ZM1140.44,175.45v8M1056.05,606.1l10,4-10,4"/>
    <text class="cls-4" transform="translate(1135.74 165.92)"><tspan x="0" y="0">1</tspan></text>
    <text class="cls-4" transform="translate(1066.05 602.05)"><tspan x="0" y="0">*</tspan></text>
    <rect class="cls-6" x="112" y="121.9" width="265.69" height="32"/>
    <text class="cls-4" transform="translate(122 141.15)"><tspan x="0" y="0">books</tspan></text>
    <rect class="cls-7" x="112" y="153.9" width="265.69" height="32"/>
    <text class="cls-1" transform="translate(122 173.15)"><tspan x="0" y="0">isnb</tspan></text>
    <path class="cls-3" d="M162.76,164.14c1.63,0,2.95,1.32,2.95,2.95s-1.32,2.95-2.95,2.95c-.39,0-.76-.08-1.1-.21l-.87.87h-.66v.98h-.98v.98h-1.97v-1.97l2.75-2.75c-.08-.28-.13-.57-.13-.86,0-1.63,1.32-2.95,2.95-2.95ZM162.76,163.15c-2.17,0-3.94,1.76-3.94,3.94,0,.18.01.36.04.54l-2.52,2.52c-.09.09-.14.22-.14.35v2.66c0,.27.22.49.49.49h2.95c.27,0,.49-.22.49-.49v-.49h.49c.27,0,.49-.22.49-.49v-.41l.82-.82c.27.06.54.09.82.09,2.17,0,3.94-1.76,3.94-3.94s-1.76-3.94-3.94-3.94ZM162.76,166.1c0,.54.44.98.98.98s.98-.44.98-.98-.44-.98-.98-.98-.98.44-.98.98Z"/>
    <text class="cls-5" transform="translate(283.88 173.15)"><tspan x="0" y="0">varchar(20)</tspan></text>
    <rect class="cls-7" x="112" y="185.9" width="265.69" height="32"/>
    <text class="cls-1" transform="translate(122 205.15)"><tspan x="0" y="0">title</tspan></text>
    <text class="cls-5" transform="translate(283.39 205.15)"><tspan x="0" y="0">varchar(50)</tspan></text>
    <rect class="cls-7" x="112" y="217.9" width="265.69" height="32"/>
    <text class="cls-1" transform="translate(122 237.15)"><tspan x="0" y="0">author_ID</tspan></text>
    <path class="cls-8" d="M345.69,224.4h20s2,0,2,2v12s0,2-2,2h-20s-2,0-2-2v-12s0-2,2-2"/>
    <path class="cls-3" d="M354.5,236.9h-1.17l-4.75-7.56h-.05c.01.2.03.43.04.69.02.25.03.53.04.82.01.29.02.58.02.88v5.17h-.94v-9h1.16l4.73,7.53h.04c0-.14-.02-.35-.03-.61-.01-.27-.02-.55-.04-.86,0-.31-.01-.59-.01-.86v-5.21h.95v9Z"/>
    <path class="cls-3" d="M363.69,236.9h-1.17l-4.75-7.56h-.05c.01.2.03.43.04.69.02.25.03.53.04.82.01.29.02.58.02.88v5.17h-.94v-9h1.16l4.73,7.53h.04c0-.14-.02-.35-.03-.61-.01-.27-.02-.55-.04-.86,0-.31-.01-.59-.01-.86v-5.21h.95v9Z"/>
    <text class="cls-5" transform="translate(313.8 237.15)"><tspan x="0" y="0">int</tspan></text>
    <rect class="cls-7" x="112" y="249.9" width="265.69" height="32"/>
    <text class="cls-1" transform="translate(122 269.15)"><tspan x="0" y="0">publisher_ID</tspan></text>
    <path class="cls-8" d="M345.69,256.4h20s2,0,2,2v12s0,2-2,2h-20s-2,0-2-2v-12s0-2,2-2"/>
    <path class="cls-3" d="M354.5,268.9h-1.17l-4.75-7.56h-.05c.01.2.03.43.04.69.02.25.03.53.04.82.01.29.02.58.02.88v5.17h-.94v-9h1.16l4.73,7.53h.04c0-.14-.02-.35-.03-.61-.01-.27-.02-.55-.04-.86,0-.31-.01-.59-.01-.86v-5.21h.95v9Z"/>
    <path class="cls-3" d="M363.69,268.9h-1.17l-4.75-7.56h-.05c.01.2.03.43.04.69.02.25.03.53.04.82.01.29.02.58.02.88v5.17h-.94v-9h1.16l4.73,7.53h.04c0-.14-.02-.35-.03-.61-.01-.27-.02-.55-.04-.86,0-.31-.01-.59-.01-.86v-5.21h.95v9Z"/>
    <text class="cls-5" transform="translate(313.8 269.15)"><tspan x="0" y="0">int</tspan></text>
    <rect class="cls-7" x="112" y="281.9" width="265.69" height="32"/>
    <text class="cls-1" transform="translate(122 301.15)"><tspan x="0" y="0">published_month</tspan></text>
    <text class="cls-5" transform="translate(341.8 301.15)"><tspan x="0" y="0">int</tspan></text>
    <rect class="cls-7" x="112" y="313.9" width="265.69" height="32"/>
    <text class="cls-1" transform="translate(122 333.15)"><tspan x="0" y="0">published_year</tspan></text>
    <text class="cls-5" transform="translate(341.8 333.15)"><tspan x="0" y="0">int</tspan></text>
    <rect class="cls-7" x="112" y="345.9" width="265.69" height="32"/>
    <text class="cls-1" transform="translate(122 365.15)"><tspan x="0" y="0">price</tspan></text>
    <path class="cls-8" d="M345.69,352.4h20s2,0,2,2v12s0,2-2,2h-20s-2,0-2-2v-12s0-2,2-2"/>
    <path class="cls-3" d="M354.5,364.9h-1.17l-4.75-7.56h-.05c.01.2.03.43.04.69.02.25.03.53.04.82.01.29.02.58.02.88v5.17h-.94v-9h1.16l4.73,7.53h.04c0-.14-.02-.35-.03-.61-.01-.27-.02-.55-.04-.86,0-.31-.01-.59-.01-.86v-5.21h.95v9Z"/>
    <path class="cls-3" d="M363.69,364.9h-1.17l-4.75-7.56h-.05c.01.2.03.43.04.69.02.25.03.53.04.82.01.29.02.58.02.88v5.17h-.94v-9h1.16l4.73,7.53h.04c0-.14-.02-.35-.03-.61-.01-.27-.02-.55-.04-.86,0-.31-.01-.59-.01-.86v-5.21h.95v9Z"/>
    <text class="cls-5" transform="translate(313.8 365.15)"><tspan x="0" y="0">int</tspan></text>
    <rect class="cls-7" x="112" y="377.9" width="265.69" height="32"/>
    <text class="cls-1" transform="translate(122 397.15)"><tspan x="0" y="0">quantity</tspan></text>
    <path class="cls-8" d="M345.69,384.4h20s2,0,2,2v12s0,2-2,2h-20s-2,0-2-2v-12s0-2,2-2"/>
    <path class="cls-3" d="M354.5,396.9h-1.17l-4.75-7.56h-.05c.01.2.03.43.04.69.02.25.03.53.04.82.01.29.02.58.02.88v5.17h-.94v-9h1.16l4.73,7.53h.04c0-.14-.02-.35-.03-.61-.01-.27-.02-.55-.04-.86,0-.31-.01-.59-.01-.86v-5.21h.95v9Z"/>
    <path class="cls-3" d="M363.69,396.9h-1.17l-4.75-7.56h-.05c.01.2.03.43.04.69.02.25.03.53.04.82.01.29.02.58.02.88v5.17h-.94v-9h1.16l4.73,7.53h.04c0-.14-.02-.35-.03-.61-.01-.27-.02-.55-.04-.86,0-.31-.01-.59-.01-.86v-5.21h.95v9Z"/>
    <text class="cls-5" transform="translate(313.8 397.15)"><tspan x="0" y="0">int</tspan></text>
    <rect class="cls-7" x="112" y="409.9" width="265.69" height="32"/>
    <text class="cls-1" transform="translate(122 429.15)"><tspan x="0" y="0">total_issues</tspan></text>
    <path class="cls-8" d="M345.69,416.4h20s2,0,2,2v12s0,2-2,2h-20s-2,0-2-2v-12s0-2,2-2"/>
    <path class="cls-3" d="M354.5,428.9h-1.17l-4.75-7.56h-.05c.01.2.03.43.04.69.02.25.03.53.04.82.01.29.02.58.02.88v5.17h-.94v-9h1.16l4.73,7.53h.04c0-.14-.02-.35-.03-.61-.01-.27-.02-.55-.04-.86,0-.31-.01-.59-.01-.86v-5.21h.95v9Z"/>
    <path class="cls-3" d="M363.69,428.9h-1.17l-4.75-7.56h-.05c.01.2.03.43.04.69.02.25.03.53.04.82.01.29.02.58.02.88v5.17h-.94v-9h1.16l4.73,7.53h.04c0-.14-.02-.35-.03-.61-.01-.27-.02-.55-.04-.86,0-.31-.01-.59-.01-.86v-5.21h.95v9Z"/>
    <text class="cls-5" transform="translate(313.8 429.15)"><tspan x="0" y="0">int</tspan></text>
    <rect class="cls-7" x="112" y="441.9" width="265.69" height="32"/>
    <text class="cls-1" transform="translate(122 461.15)"><tspan x="0" y="0">total_renewes</tspan></text>
    <path class="cls-8" d="M345.69,448.4h20s2,0,2,2v12s0,2-2,2h-20s-2,0-2-2v-12s0-2,2-2"/>
    <path class="cls-3" d="M354.5,460.9h-1.17l-4.75-7.56h-.05c.01.2.03.43.04.69.02.25.03.53.04.82.01.29.02.58.02.88v5.17h-.94v-9h1.16l4.73,7.53h.04c0-.14-.02-.35-.03-.61-.01-.27-.02-.55-.04-.86,0-.31-.01-.59-.01-.86v-5.21h.95v9Z"/>
    <path class="cls-3" d="M363.69,460.9h-1.17l-4.75-7.56h-.05c.01.2.03.43.04.69.02.25.03.53.04.82.01.29.02.58.02.88v5.17h-.94v-9h1.16l4.73,7.53h.04c0-.14-.02-.35-.03-.61-.01-.27-.02-.55-.04-.86,0-.31-.01-.59-.01-.86v-5.21h.95v9Z"/>
    <text class="cls-5" transform="translate(313.8 461.15)"><tspan x="0" y="0">int</tspan></text>
    <rect class="cls-7" x="112" y="473.9" width="265.69" height="32"/>
    <text class="cls-1" transform="translate(122 493.15)"><tspan x="0" y="0">genre_ID</tspan></text>
    <path class="cls-8" d="M345.69,480.4h20s2,0,2,2v12s0,2-2,2h-20s-2,0-2-2v-12s0-2,2-2"/>
    <path class="cls-3" d="M354.5,492.9h-1.17l-4.75-7.56h-.05c.01.2.03.43.04.69.02.25.03.53.04.82.01.29.02.58.02.88v5.17h-.94v-9h1.16l4.73,7.53h.04c0-.14-.02-.35-.03-.61-.01-.27-.02-.55-.04-.86,0-.31-.01-.59-.01-.86v-5.21h.95v9Z"/>
    <path class="cls-3" d="M363.69,492.9h-1.17l-4.75-7.56h-.05c.01.2.03.43.04.69.02.25.03.53.04.82.01.29.02.58.02.88v5.17h-.94v-9h1.16l4.73,7.53h.04c0-.14-.02-.35-.03-.61-.01-.27-.02-.55-.04-.86,0-.31-.01-.59-.01-.86v-5.21h.95v9Z"/>
    <text class="cls-5" transform="translate(313.8 493.15)"><tspan x="0" y="0">int</tspan></text>
    <rect class="cls-7" x="112" y="505.9" width="265.69" height="32"/>
    <text class="cls-1" transform="translate(122 525.15)"><tspan x="0" y="0">origin_country</tspan></text>
    <path class="cls-8" d="M345.69,512.4h20s2,0,2,2v12s0,2-2,2h-20s-2,0-2-2v-12s0-2,2-2"/>
    <path class="cls-3" d="M354.5,524.9h-1.17l-4.75-7.56h-.05c.01.2.03.43.04.69.02.25.03.53.04.82.01.29.02.58.02.88v5.17h-.94v-9h1.16l4.73,7.53h.04c0-.14-.02-.35-.03-.61-.01-.27-.02-.55-.04-.86,0-.31-.01-.59-.01-.86v-5.21h.95v9Z"/>
    <path class="cls-3" d="M363.69,524.9h-1.17l-4.75-7.56h-.05c.01.2.03.43.04.69.02.25.03.53.04.82.01.29.02.58.02.88v5.17h-.94v-9h1.16l4.73,7.53h.04c0-.14-.02-.35-.03-.61-.01-.27-.02-.55-.04-.86,0-.31-.01-.59-.01-.86v-5.21h.95v9Z"/>
    <text class="cls-5" transform="translate(255.39 525.15)"><tspan x="0" y="0">varchar(50)</tspan></text>
    <rect class="cls-6" x="783.7" y="131.45" width="258.53" height="32"/>
    <text class="cls-4" transform="translate(793.7 150.7)"><tspan x="0" y="0">author</tspan></text>
    <rect class="cls-7" x="783.7" y="163.45" width="258.53" height="32"/>
    <text class="cls-1" transform="translate(793.7 182.7)"><tspan x="0" y="0">author_ID</tspan></text>
    <path class="cls-3" d="M875.07,173.68c1.63,0,2.95,1.32,2.95,2.95s-1.32,2.95-2.95,2.95c-.39,0-.76-.08-1.1-.21l-.87.87h-.66v.98h-.98v.98h-1.97v-1.97l2.75-2.75c-.08-.28-.13-.57-.13-.86,0-1.63,1.32-2.95,2.95-2.95ZM875.07,172.7c-2.17,0-3.94,1.76-3.94,3.94,0,.18.01.36.04.54l-2.52,2.52c-.09.09-.14.22-.14.35v2.66c0,.27.22.49.49.49h2.95c.27,0,.49-.22.49-.49v-.49h.49c.27,0,.49-.22.49-.49v-.41l.82-.82c.27.06.54.09.82.09,2.17,0,3.94-1.76,3.94-3.94s-1.76-3.94-3.94-3.94ZM875.07,175.65c0,.54.44.98.98.98s.98-.44.98-.98-.44-.98-.98-.98-.98.44-.98.98Z"/>
    <path class="cls-8" d="M1010.23,169.95h20s2,0,2,2v12s0,2-2,2h-20s-2,0-2-2v-12s0-2,2-2"/>
    <path class="cls-3" d="M1019.04,182.45h-1.17l-4.75-7.56h-.05c.01.2.03.43.04.69.02.25.03.53.04.82.01.29.02.58.02.88v5.17h-.94v-9h1.16l4.73,7.53h.04c0-.14-.02-.35-.03-.61-.01-.27-.02-.55-.04-.86,0-.31-.01-.59-.01-.86v-5.21h.95v9Z"/>
    <path class="cls-3" d="M1028.23,182.45h-1.17l-4.75-7.56h-.05c.01.2.03.43.04.69.02.25.03.53.04.82.01.29.02.58.02.88v5.17h-.94v-9h1.16l4.73,7.53h.04c0-.14-.02-.35-.03-.61-.01-.27-.02-.55-.04-.86,0-.31-.01-.59-.01-.86v-5.21h.95v9Z"/>
    <text class="cls-5" transform="translate(976.08 182.7)"><tspan x="0" y="0">int</tspan></text>
    <rect class="cls-7" x="783.7" y="195.45" width="258.53" height="32"/>
    <text class="cls-1" transform="translate(793.7 214.7)"><tspan x="0" y="0">author_name</tspan></text>
    <path class="cls-8" d="M1010.23,201.95h20s2,0,2,2v12s0,2-2,2h-20s-2,0-2-2v-12s0-2,2-2"/>
    <path class="cls-3" d="M1019.04,214.45h-1.17l-4.75-7.56h-.05c.01.2.03.43.04.69.02.25.03.53.04.82.01.29.02.58.02.88v5.17h-.94v-9h1.16l4.73,7.53h.04c0-.14-.02-.35-.03-.61-.01-.27-.02-.55-.04-.86,0-.31-.01-.59-.01-.86v-5.21h.95v9Z"/>
    <path class="cls-3" d="M1028.23,214.45h-1.17l-4.75-7.56h-.05c.01.2.03.43.04.69.02.25.03.53.04.82.01.29.02.58.02.88v5.17h-.94v-9h1.16l4.73,7.53h.04c0-.14-.02-.35-.03-.61-.01-.27-.02-.55-.04-.86,0-.31-.01-.59-.01-.86v-5.21h.95v9Z"/>
    <text class="cls-5" transform="translate(919.93 214.7)"><tspan x="0" y="0">varchar(50)</tspan></text>
    <rect class="cls-7" x="783.7" y="227.45" width="258.53" height="32"/>
    <text class="cls-1" transform="translate(793.7 246.7)"><tspan x="0" y="0">books_published</tspan></text>
    <text class="cls-5" transform="translate(1006.34 246.7)"><tspan x="0" y="0">int</tspan></text>
    <rect class="cls-7" x="783.7" y="259.45" width="258.53" height="32"/>
    <text class="cls-1" transform="translate(793.7 278.7)"><tspan x="0" y="0">origin_country</tspan></text>
    <text class="cls-5" transform="translate(953.93 278.7)"><tspan x="0" y="0">varchar(50)</tspan></text>
    <rect class="cls-6" x="769.88" y="466.1" width="286.17" height="32"/>
    <text class="cls-4" transform="translate(779.88 485.35)"><tspan x="0" y="0">orders</tspan></text>
    <rect class="cls-7" x="769.88" y="498.1" width="286.17" height="32"/>
    <text class="cls-1" transform="translate(779.88 517.35)"><tspan x="0" y="0">order_ID</tspan></text>
    <path class="cls-3" d="M852.48,508.33c1.63,0,2.95,1.32,2.95,2.95s-1.32,2.95-2.95,2.95c-.39,0-.76-.08-1.1-.21l-.87.87h-.66v.98h-.98v.98h-1.97v-1.97l2.75-2.75c-.08-.28-.13-.57-.13-.86,0-1.63,1.32-2.95,2.95-2.95ZM852.48,507.35c-2.17,0-3.94,1.76-3.94,3.94,0,.18.01.36.04.54l-2.52,2.52c-.09.09-.14.22-.14.35v2.66c0,.27.22.49.49.49h2.95c.27,0,.49-.22.49-.49v-.49h.49c.27,0,.49-.22.49-.49v-.41l.82-.82c.27.06.54.09.82.09,2.17,0,3.94-1.76,3.94-3.94s-1.76-3.94-3.94-3.94ZM852.48,510.3c0,.54.44.98.98.98s.98-.44.98-.98-.44-.98-.98-.98-.98.44-.98.98Z"/>
    <path class="cls-8" d="M1024.05,504.6h20s2,0,2,2v12s0,2-2,2h-20s-2,0-2-2v-12s0-2,2-2"/>
    <path class="cls-3" d="M1032.86,517.1h-1.17l-4.75-7.56h-.05c.01.2.03.43.04.69.02.25.03.53.04.82.01.29.02.58.02.88v5.17h-.94v-9h1.16l4.73,7.53h.04c0-.14-.02-.35-.03-.61-.01-.27-.02-.55-.04-.86,0-.31-.01-.59-.01-.86v-5.21h.95v9Z"/>
    <path class="cls-3" d="M1042.05,517.1h-1.17l-4.75-7.56h-.05c.01.2.03.43.04.69.02.25.03.53.04.82.01.29.02.58.02.88v5.17h-.94v-9h1.16l4.73,7.53h.04c0-.14-.02-.35-.03-.61-.01-.27-.02-.55-.04-.86,0-.31-.01-.59-.01-.86v-5.21h.95v9Z"/>
    <text class="cls-5" transform="translate(989.9 517.35)"><tspan x="0" y="0">int</tspan></text>
    <rect class="cls-7" x="769.88" y="530.1" width="286.17" height="32"/>
    <text class="cls-1" transform="translate(779.88 549.35)"><tspan x="0" y="0">isbn</tspan></text>
    <path class="cls-8" d="M1024.05,536.6h20s2,0,2,2v12s0,2-2,2h-20s-2,0-2-2v-12s0-2,2-2"/>
    <path class="cls-3" d="M1032.86,549.1h-1.17l-4.75-7.56h-.05c.01.2.03.43.04.69.02.25.03.53.04.82.01.29.02.58.02.88v5.17h-.94v-9h1.16l4.73,7.53h.04c0-.14-.02-.35-.03-.61-.01-.27-.02-.55-.04-.86,0-.31-.01-.59-.01-.86v-5.21h.95v9Z"/>
    <path class="cls-3" d="M1042.05,549.1h-1.17l-4.75-7.56h-.05c.01.2.03.43.04.69.02.25.03.53.04.82.01.29.02.58.02.88v5.17h-.94v-9h1.16l4.73,7.53h.04c0-.14-.02-.35-.03-.61-.01-.27-.02-.55-.04-.86,0-.31-.01-.59-.01-.86v-5.21h.95v9Z"/>
    <text class="cls-5" transform="translate(933.75 549.35)"><tspan x="0" y="0">varchar(20)</tspan></text>
    <rect class="cls-7" x="769.88" y="562.1" width="286.17" height="32"/>
    <text class="cls-1" transform="translate(779.88 581.35)"><tspan x="0" y="0">genre_ID</tspan></text>
    <path class="cls-8" d="M1024.05,568.6h20s2,0,2,2v12s0,2-2,2h-20s-2,0-2-2v-12s0-2,2-2"/>
    <path class="cls-3" d="M1032.86,581.1h-1.17l-4.75-7.56h-.05c.01.2.03.43.04.69.02.25.03.53.04.82.01.29.02.58.02.88v5.17h-.94v-9h1.16l4.73,7.53h.04c0-.14-.02-.35-.03-.61-.01-.27-.02-.55-.04-.86,0-.31-.01-.59-.01-.86v-5.21h.95v9Z"/>
    <path class="cls-3" d="M1042.05,581.1h-1.17l-4.75-7.56h-.05c.01.2.03.43.04.69.02.25.03.53.04.82.01.29.02.58.02.88v5.17h-.94v-9h1.16l4.73,7.53h.04c0-.14-.02-.35-.03-.61-.01-.27-.02-.55-.04-.86,0-.31-.01-.59-.01-.86v-5.21h.95v9Z"/>
    <text class="cls-5" transform="translate(992.16 581.35)"><tspan x="0" y="0">int</tspan></text>
    <rect class="cls-7" x="769.88" y="594.1" width="286.17" height="32"/>
    <text class="cls-1" transform="translate(779.88 613.35)"><tspan x="0" y="0">customer_ID</tspan></text>
    <path class="cls-8" d="M1024.05,600.6h20s2,0,2,2v12s0,2-2,2h-20s-2,0-2-2v-12s0-2,2-2"/>
    <path class="cls-3" d="M1032.86,613.1h-1.17l-4.75-7.56h-.05c.01.2.03.43.04.69.02.25.03.53.04.82.01.29.02.58.02.88v5.17h-.94v-9h1.16l4.73,7.53h.04c0-.14-.02-.35-.03-.61-.01-.27-.02-.55-.04-.86,0-.31-.01-.59-.01-.86v-5.21h.95v9Z"/>
    <path class="cls-3" d="M1042.05,613.1h-1.17l-4.75-7.56h-.05c.01.2.03.43.04.69.02.25.03.53.04.82.01.29.02.58.02.88v5.17h-.94v-9h1.16l4.73,7.53h.04c0-.14-.02-.35-.03-.61-.01-.27-.02-.55-.04-.86,0-.31-.01-.59-.01-.86v-5.21h.95v9Z"/>
    <text class="cls-5" transform="translate(992.16 613.35)"><tspan x="0" y="0">int</tspan></text>
    <rect class="cls-7" x="769.88" y="626.1" width="286.17" height="32"/>
    <text class="cls-1" transform="translate(779.88 645.35)"><tspan x="0" y="0">month</tspan></text>
    <path class="cls-8" d="M1024.05,632.6h20s2,0,2,2v12s0,2-2,2h-20s-2,0-2-2v-12s0-2,2-2"/>
    <path class="cls-3" d="M1032.86,645.1h-1.17l-4.75-7.56h-.05c.01.2.03.43.04.69.02.25.03.53.04.82.01.29.02.58.02.88v5.17h-.94v-9h1.16l4.73,7.53h.04c0-.14-.02-.35-.03-.61-.01-.27-.02-.55-.04-.86,0-.31-.01-.59-.01-.86v-5.21h.95v9Z"/>
    <path class="cls-3" d="M1042.05,645.1h-1.17l-4.75-7.56h-.05c.01.2.03.43.04.69.02.25.03.53.04.82.01.29.02.58.02.88v5.17h-.94v-9h1.16l4.73,7.53h.04c0-.14-.02-.35-.03-.61-.01-.27-.02-.55-.04-.86,0-.31-.01-.59-.01-.86v-5.21h.95v9Z"/>
    <text class="cls-5" transform="translate(992.16 645.35)"><tspan x="0" y="0">int</tspan></text>
    <rect class="cls-7" x="769.88" y="658.1" width="286.17" height="32"/>
    <text class="cls-1" transform="translate(779.88 677.35)"><tspan x="0" y="0">year</tspan></text>
    <path class="cls-8" d="M1024.05,664.6h20s2,0,2,2v12s0,2-2,2h-20s-2,0-2-2v-12s0-2,2-2"/>
    <path class="cls-3" d="M1032.86,677.1h-1.17l-4.75-7.56h-.05c.01.2.03.43.04.69.02.25.03.53.04.82.01.29.02.58.02.88v5.17h-.94v-9h1.16l4.73,7.53h.04c0-.14-.02-.35-.03-.61-.01-.27-.02-.55-.04-.86,0-.31-.01-.59-.01-.86v-5.21h.95v9Z"/>
    <path class="cls-3" d="M1042.05,677.1h-1.17l-4.75-7.56h-.05c.01.2.03.43.04.69.02.25.03.53.04.82.01.29.02.58.02.88v5.17h-.94v-9h1.16l4.73,7.53h.04c0-.14-.02-.35-.03-.61-.01-.27-.02-.55-.04-.86,0-.31-.01-.59-.01-.86v-5.21h.95v9Z"/>
    <text class="cls-5" transform="translate(992.16 677.35)"><tspan x="0" y="0">int</tspan></text>
    <rect class="cls-7" x="769.88" y="690.1" width="286.17" height="32"/>
    <text class="cls-1" transform="translate(779.88 709.35)"><tspan x="0" y="0">quantity</tspan></text>
    <path class="cls-8" d="M1024.05,696.6h20s2,0,2,2v12s0,2-2,2h-20s-2,0-2-2v-12s0-2,2-2"/>
    <path class="cls-3" d="M1032.86,709.1h-1.17l-4.75-7.56h-.05c.01.2.03.43.04.69.02.25.03.53.04.82.01.29.02.58.02.88v5.17h-.94v-9h1.16l4.73,7.53h.04c0-.14-.02-.35-.03-.61-.01-.27-.02-.55-.04-.86,0-.31-.01-.59-.01-.86v-5.21h.95v9Z"/>
    <path class="cls-3" d="M1042.05,709.1h-1.17l-4.75-7.56h-.05c.01.2.03.43.04.69.02.25.03.53.04.82.01.29.02.58.02.88v5.17h-.94v-9h1.16l4.73,7.53h.04c0-.14-.02-.35-.03-.61-.01-.27-.02-.55-.04-.86,0-.31-.01-.59-.01-.86v-5.21h.95v9Z"/>
    <text class="cls-5" transform="translate(992.16 709.35)"><tspan x="0" y="0">int</tspan></text>
    <rect class="cls-7" x="769.88" y="722.1" width="286.17" height="32"/>
    <text class="cls-1" transform="translate(779.88 741.35)"><tspan x="0" y="0">payment_method</tspan></text>
    <path class="cls-8" d="M1024.05,728.6h20s2,0,2,2v12s0,2-2,2h-20s-2,0-2-2v-12s0-2,2-2"/>
    <path class="cls-3" d="M1032.86,741.1h-1.17l-4.75-7.56h-.05c.01.2.03.43.04.69.02.25.03.53.04.82.01.29.02.58.02.88v5.17h-.94v-9h1.16l4.73,7.53h.04c0-.14-.02-.35-.03-.61-.01-.27-.02-.55-.04-.86,0-.31-.01-.59-.01-.86v-5.21h.95v9Z"/>
    <path class="cls-3" d="M1042.05,741.1h-1.17l-4.75-7.56h-.05c.01.2.03.43.04.69.02.25.03.53.04.82.01.29.02.58.02.88v5.17h-.94v-9h1.16l4.73,7.53h.04c0-.14-.02-.35-.03-.61-.01-.27-.02-.55-.04-.86,0-.31-.01-.59-.01-.86v-5.21h.95v9Z"/>
    <text class="cls-5" transform="translate(933.75 741.35)"><tspan x="0" y="0">varchar(10)</tspan></text>
    <rect class="cls-6" x="1150.44" y="131.45" width="230.06" height="32"/>
    <text class="cls-4" transform="translate(1160.44 150.7)"><tspan x="0" y="0">customer</tspan></text>
    <rect class="cls-7" x="1150.44" y="163.45" width="230.06" height="32"/>
    <text class="cls-1" transform="translate(1160.44 182.7)"><tspan x="0" y="0">customer_ID</tspan></text>
    <path class="cls-3" d="M1257,173.68c1.63,0,2.95,1.32,2.95,2.95s-1.32,2.95-2.95,2.95c-.39,0-.76-.08-1.1-.21l-.87.87h-.66v.98h-.98v.98h-1.97v-1.97l2.75-2.75c-.08-.28-.13-.57-.13-.86,0-1.63,1.32-2.95,2.95-2.95ZM1257,172.7c-2.17,0-3.94,1.76-3.94,3.94,0,.18.01.36.04.54l-2.52,2.52c-.09.09-.14.22-.14.35v2.66c0,.27.22.49.49.49h2.95c.27,0,.49-.22.49-.49v-.49h.49c.27,0,.49-.22.49-.49v-.41l.82-.82c.27.06.54.09.82.09,2.17,0,3.94-1.76,3.94-3.94s-1.76-3.94-3.94-3.94ZM1257,175.65c0,.54.44.98.98.98s.98-.44.98-.98-.44-.98-.98-.98-.98.44-.98.98Z"/>
    <path class="cls-8" d="M1348.49,169.95h20s2,0,2,2v12s0,2-2,2h-20s-2,0-2-2v-12s0-2,2-2"/>
    <path class="cls-3" d="M1357.3,182.45h-1.17l-4.75-7.56h-.05c.01.2.03.43.04.69.02.25.03.53.04.82.01.29.02.58.02.88v5.17h-.94v-9h1.16l4.73,7.53h.04c0-.14-.02-.35-.03-.61-.01-.27-.02-.55-.04-.86,0-.31-.01-.59-.01-.86v-5.21h.95v9Z"/>
    <path class="cls-3" d="M1366.49,182.45h-1.17l-4.75-7.56h-.05c.01.2.03.43.04.69.02.25.03.53.04.82.01.29.02.58.02.88v5.17h-.94v-9h1.16l4.73,7.53h.04c0-.14-.02-.35-.03-.61-.01-.27-.02-.55-.04-.86,0-.31-.01-.59-.01-.86v-5.21h.95v9Z"/>
    <text class="cls-5" transform="translate(1314.34 182.7)"><tspan x="0" y="0">int</tspan></text>
    <rect class="cls-7" x="1150.44" y="195.45" width="230.06" height="32"/>
    <text class="cls-1" transform="translate(1160.44 214.7)"><tspan x="0" y="0">name</tspan></text>
    <path class="cls-8" d="M1348.49,201.95h20s2,0,2,2v12s0,2-2,2h-20s-2,0-2-2v-12s0-2,2-2"/>
    <path class="cls-3" d="M1357.3,214.45h-1.17l-4.75-7.56h-.05c.01.2.03.43.04.69.02.25.03.53.04.82.01.29.02.58.02.88v5.17h-.94v-9h1.16l4.73,7.53h.04c0-.14-.02-.35-.03-.61-.01-.27-.02-.55-.04-.86,0-.31-.01-.59-.01-.86v-5.21h.95v9Z"/>
    <path class="cls-3" d="M1366.49,214.45h-1.17l-4.75-7.56h-.05c.01.2.03.43.04.69.02.25.03.53.04.82.01.29.02.58.02.88v5.17h-.94v-9h1.16l4.73,7.53h.04c0-.14-.02-.35-.03-.61-.01-.27-.02-.55-.04-.86,0-.31-.01-.59-.01-.86v-5.21h.95v9Z"/>
    <text class="cls-5" transform="translate(1258.19 214.7)"><tspan x="0" y="0">varchar(50)</tspan></text>
    <rect class="cls-7" x="1150.44" y="227.45" width="230.06" height="32"/>
    <text class="cls-1" transform="translate(1160.44 246.7)"><tspan x="0" y="0">email</tspan></text>
    <text class="cls-5" transform="translate(1292.19 246.7)"><tspan x="0" y="0">varchar(50)</tspan></text>
    <rect class="cls-7" x="1150.44" y="259.45" width="230.06" height="32"/>
    <text class="cls-1" transform="translate(1160.44 278.7)"><tspan x="0" y="0">phone</tspan></text>
    <path class="cls-8" d="M1348.49,265.95h20s2,0,2,2v12s0,2-2,2h-20s-2,0-2-2v-12s0-2,2-2"/>
    <path class="cls-3" d="M1357.3,278.45h-1.17l-4.75-7.56h-.05c.01.2.03.43.04.69.02.25.03.53.04.82.01.29.02.58.02.88v5.17h-.94v-9h1.16l4.73,7.53h.04c0-.14-.02-.35-.03-.61-.01-.27-.02-.55-.04-.86,0-.31-.01-.59-.01-.86v-5.21h.95v9Z"/>
    <path class="cls-3" d="M1366.49,278.45h-1.17l-4.75-7.56h-.05c.01.2.03.43.04.69.02.25.03.53.04.82.01.29.02.58.02.88v5.17h-.94v-9h1.16l4.73,7.53h.04c0-.14-.02-.35-.03-.61-.01-.27-.02-.55-.04-.86,0-.31-.01-.59-.01-.86v-5.21h.95v9Z"/>
    <text class="cls-5" transform="translate(1298.31 278.7)"><tspan x="0" y="0">bigint</tspan></text>
    <rect class="cls-7" x="1150.44" y="291.45" width="230.06" height="32"/>
    <text class="cls-1" transform="translate(1160.44 310.7)"><tspan x="0" y="0">address</tspan></text>
    <path class="cls-8" d="M1348.49,297.95h20s2,0,2,2v12s0,2-2,2h-20s-2,0-2-2v-12s0-2,2-2"/>
    <path class="cls-3" d="M1357.3,310.45h-1.17l-4.75-7.56h-.05c.01.2.03.43.04.69.02.25.03.53.04.82.01.29.02.58.02.88v5.17h-.94v-9h1.16l4.73,7.53h.04c0-.14-.02-.35-.03-.61-.01-.27-.02-.55-.04-.86,0-.31-.01-.59-.01-.86v-5.21h.95v9Z"/>
    <path class="cls-3" d="M1366.49,310.45h-1.17l-4.75-7.56h-.05c.01.2.03.43.04.69.02.25.03.53.04.82.01.29.02.58.02.88v5.17h-.94v-9h1.16l4.73,7.53h.04c0-.14-.02-.35-.03-.61-.01-.27-.02-.55-.04-.86,0-.31-.01-.59-.01-.86v-5.21h.95v9Z"/>
    <text class="cls-5" transform="translate(1250.76 310.7)"><tspan x="0" y="0">varchar(100)</tspan></text>
    <rect class="cls-7" x="1150.44" y="323.45" width="230.06" height="32"/>
    <text class="cls-1" transform="translate(1160.44 342.7)"><tspan x="0" y="0">is_member</tspan></text>
    <path class="cls-8" d="M1348.49,329.95h20s2,0,2,2v12s0,2-2,2h-20s-2,0-2-2v-12s0-2,2-2"/>
    <path class="cls-3" d="M1357.3,342.45h-1.17l-4.75-7.56h-.05c.01.2.03.43.04.69.02.25.03.53.04.82.01.29.02.58.02.88v5.17h-.94v-9h1.16l4.73,7.53h.04c0-.14-.02-.35-.03-.61-.01-.27-.02-.55-.04-.86,0-.31-.01-.59-.01-.86v-5.21h.95v9Z"/>
    <path class="cls-3" d="M1366.49,342.45h-1.17l-4.75-7.56h-.05c.01.2.03.43.04.69.02.25.03.53.04.82.01.29.02.58.02.88v5.17h-.94v-9h1.16l4.73,7.53h.04c0-.14-.02-.35-.03-.61-.01-.27-.02-.55-.04-.86,0-.31-.01-.59-.01-.86v-5.21h.95v9Z"/>
    <text class="cls-5" transform="translate(1283.12 342.7)"><tspan x="0" y="0">boolean</tspan></text>
    <rect class="cls-7" x="1150.44" y="355.45" width="230.06" height="32"/>
    <text class="cls-1" transform="translate(1160.44 374.7)"><tspan x="0" y="0">total_issues</tspan></text>
    <path class="cls-8" d="M1348.49,361.95h20s2,0,2,2v12s0,2-2,2h-20s-2,0-2-2v-12s0-2,2-2"/>
    <path class="cls-3" d="M1357.3,374.45h-1.17l-4.75-7.56h-.05c.01.2.03.43.04.69.02.25.03.53.04.82.01.29.02.58.02.88v5.17h-.94v-9h1.16l4.73,7.53h.04c0-.14-.02-.35-.03-.61-.01-.27-.02-.55-.04-.86,0-.31-.01-.59-.01-.86v-5.21h.95v9Z"/>
    <path class="cls-3" d="M1366.49,374.45h-1.17l-4.75-7.56h-.05c.01.2.03.43.04.69.02.25.03.53.04.82.01.29.02.58.02.88v5.17h-.94v-9h1.16l4.73,7.53h.04c0-.14-.02-.35-.03-.61-.01-.27-.02-.55-.04-.86,0-.31-.01-.59-.01-.86v-5.21h.95v9Z"/>
    <text class="cls-5" transform="translate(1316.6 374.7)"><tspan x="0" y="0">int</tspan></text>
    <rect class="cls-7" x="1150.44" y="387.45" width="230.06" height="32"/>
    <text class="cls-1" transform="translate(1160.44 406.7)"><tspan x="0" y="0">total_renewes</tspan></text>
    <path class="cls-8" d="M1348.49,393.95h20s2,0,2,2v12s0,2-2,2h-20s-2,0-2-2v-12s0-2,2-2"/>
    <path class="cls-3" d="M1357.3,406.45h-1.17l-4.75-7.56h-.05c.01.2.03.43.04.69.02.25.03.53.04.82.01.29.02.58.02.88v5.17h-.94v-9h1.16l4.73,7.53h.04c0-.14-.02-.35-.03-.61-.01-.27-.02-.55-.04-.86,0-.31-.01-.59-.01-.86v-5.21h.95v9Z"/>
    <path class="cls-3" d="M1366.49,406.45h-1.17l-4.75-7.56h-.05c.01.2.03.43.04.69.02.25.03.53.04.82.01.29.02.58.02.88v5.17h-.94v-9h1.16l4.73,7.53h.04c0-.14-.02-.35-.03-.61-.01-.27-.02-.55-.04-.86,0-.31-.01-.59-.01-.86v-5.21h.95v9Z"/>
    <text class="cls-5" transform="translate(1316.6 406.7)"><tspan x="0" y="0">int</tspan></text>
    <rect class="cls-7" x="1150.44" y="419.45" width="230.06" height="32"/>
    <text class="cls-1" transform="translate(1160.44 438.7)"><tspan x="0" y="0">is_student</tspan></text>
    <path class="cls-8" d="M1348.49,425.95h20s2,0,2,2v12s0,2-2,2h-20s-2,0-2-2v-12s0-2,2-2"/>
    <path class="cls-3" d="M1357.3,438.45h-1.17l-4.75-7.56h-.05c.01.2.03.43.04.69.02.25.03.53.04.82.01.29.02.58.02.88v5.17h-.94v-9h1.16l4.73,7.53h.04c0-.14-.02-.35-.03-.61-.01-.27-.02-.55-.04-.86,0-.31-.01-.59-.01-.86v-5.21h.95v9Z"/>
    <path class="cls-3" d="M1366.49,438.45h-1.17l-4.75-7.56h-.05c.01.2.03.43.04.69.02.25.03.53.04.82.01.29.02.58.02.88v5.17h-.94v-9h1.16l4.73,7.53h.04c0-.14-.02-.35-.03-.61-.01-.27-.02-.55-.04-.86,0-.31-.01-.59-.01-.86v-5.21h.95v9Z"/>
    <text class="cls-5" transform="translate(1283.12 438.7)"><tspan x="0" y="0">boolean</tspan></text>
    <rect class="cls-7" x="1150.44" y="451.45" width="230.06" height="32"/>
    <text class="cls-1" transform="translate(1160.44 470.7)"><tspan x="0" y="0">currently_issued</tspan></text>
    <path class="cls-8" d="M1348.49,457.95h20s2,0,2,2v12s0,2-2,2h-20s-2,0-2-2v-12s0-2,2-2"/>
    <path class="cls-3" d="M1357.3,470.45h-1.17l-4.75-7.56h-.05c.01.2.03.43.04.69.02.25.03.53.04.82.01.29.02.58.02.88v5.17h-.94v-9h1.16l4.73,7.53h.04c0-.14-.02-.35-.03-.61-.01-.27-.02-.55-.04-.86,0-.31-.01-.59-.01-.86v-5.21h.95v9Z"/>
    <path class="cls-3" d="M1366.49,470.45h-1.17l-4.75-7.56h-.05c.01.2.03.43.04.69.02.25.03.53.04.82.01.29.02.58.02.88v5.17h-.94v-9h1.16l4.73,7.53h.04c0-.14-.02-.35-.03-.61-.01-.27-.02-.55-.04-.86,0-.31-.01-.59-.01-.86v-5.21h.95v9Z"/>
    <text class="cls-5" transform="translate(1316.6 470.7)"><tspan x="0" y="0">int</tspan></text>
    <rect class="cls-7" x="1150.44" y="483.45" width="230.06" height="32"/>
    <text class="cls-1" transform="translate(1160.44 502.7)"><tspan x="0" y="0">age</tspan></text>
    <path class="cls-8" d="M1348.49,489.95h20s2,0,2,2v12s0,2-2,2h-20s-2,0-2-2v-12s0-2,2-2"/>
    <path class="cls-3" d="M1357.3,502.45h-1.17l-4.75-7.56h-.05c.01.2.03.43.04.69.02.25.03.53.04.82.01.29.02.58.02.88v5.17h-.94v-9h1.16l4.73,7.53h.04c0-.14-.02-.35-.03-.61-.01-.27-.02-.55-.04-.86,0-.31-.01-.59-.01-.86v-5.21h.95v9Z"/>
    <path class="cls-3" d="M1366.49,502.45h-1.17l-4.75-7.56h-.05c.01.2.03.43.04.69.02.25.03.53.04.82.01.29.02.58.02.88v5.17h-.94v-9h1.16l4.73,7.53h.04c0-.14-.02-.35-.03-.61-.01-.27-.02-.55-.04-.86,0-.31-.01-.59-.01-.86v-5.21h.95v9Z"/>
    <text class="cls-5" transform="translate(1316.6 502.7)"><tspan x="0" y="0">int</tspan></text>
    <rect class="cls-6" x="112" y="610.34" width="226.65" height="32"/>
    <text class="cls-4" transform="translate(122 629.59)"><tspan x="0" y="0">publisher</tspan></text>
    <rect class="cls-7" x="112" y="642.34" width="226.65" height="32"/>
    <text class="cls-1" transform="translate(122 661.59)"><tspan x="0" y="0">publisher_ID</tspan></text>
    <path class="cls-3" d="M223.35,652.57c1.63,0,2.95,1.32,2.95,2.95s-1.32,2.95-2.95,2.95c-.39,0-.76-.08-1.1-.21l-.87.87h-.66v.98h-.98v.98h-1.97v-1.97l2.75-2.75c-.08-.28-.13-.57-.13-.86,0-1.63,1.32-2.95,2.95-2.95ZM223.35,651.59c-2.17,0-3.94,1.76-3.94,3.94,0,.18.01.36.04.54l-2.52,2.52c-.09.09-.14.22-.14.35v2.66c0,.27.22.49.49.49h2.95c.27,0,.49-.22.49-.49v-.49h.49c.27,0,.49-.22.49-.49v-.41l.82-.82c.27.06.54.09.82.09,2.17,0,3.94-1.76,3.94-3.94s-1.76-3.94-3.94-3.94ZM223.35,654.54c0,.54.44.98.98.98s.98-.44.98-.98-.44-.98-.98-.98-.98.44-.98.98Z"/>
    <path class="cls-8" d="M306.65,648.84h20s2,0,2,2v12s0,2-2,2h-20s-2,0-2-2v-12s0-2,2-2"/>
    <path class="cls-3" d="M315.46,661.34h-1.17l-4.75-7.56h-.05c.01.2.03.43.04.69.02.25.03.53.04.82.01.29.02.58.02.88v5.17h-.94v-9h1.16l4.73,7.53h.04c0-.14-.02-.35-.03-.61-.01-.27-.02-.55-.04-.86,0-.31-.01-.59-.01-.86v-5.21h.95v9Z"/>
    <path class="cls-3" d="M324.65,661.34h-1.17l-4.75-7.56h-.05c.01.2.03.43.04.69.02.25.03.53.04.82.01.29.02.58.02.88v5.17h-.94v-9h1.16l4.73,7.53h.04c0-.14-.02-.35-.03-.61-.01-.27-.02-.55-.04-.86,0-.31-.01-.59-.01-.86v-5.21h.95v9Z"/>
    <text class="cls-5" transform="translate(272.5 661.59)"><tspan x="0" y="0">int</tspan></text>
    <rect class="cls-7" x="112" y="674.34" width="226.65" height="32"/>
    <text class="cls-1" transform="translate(122 693.59)"><tspan x="0" y="0">name</tspan></text>
    <path class="cls-8" d="M306.65,680.84h20s2,0,2,2v12s0,2-2,2h-20s-2,0-2-2v-12s0-2,2-2"/>
    <path class="cls-3" d="M315.46,693.34h-1.17l-4.75-7.56h-.05c.01.2.03.43.04.69.02.25.03.53.04.82.01.29.02.58.02.88v5.17h-.94v-9h1.16l4.73,7.53h.04c0-.14-.02-.35-.03-.61-.01-.27-.02-.55-.04-.86,0-.31-.01-.59-.01-.86v-5.21h.95v9Z"/>
    <path class="cls-3" d="M324.65,693.34h-1.17l-4.75-7.56h-.05c.01.2.03.43.04.69.02.25.03.53.04.82.01.29.02.58.02.88v5.17h-.94v-9h1.16l4.73,7.53h.04c0-.14-.02-.35-.03-.61-.01-.27-.02-.55-.04-.86,0-.31-.01-.59-.01-.86v-5.21h.95v9Z"/>
    <text class="cls-5" transform="translate(216.35 693.59)"><tspan x="0" y="0">varchar(50)</tspan></text>
    <rect class="cls-7" x="112" y="706.34" width="226.65" height="32"/>
    <text class="cls-1" transform="translate(122 725.59)"><tspan x="0" y="0">total_publication</tspan></text>
    <text class="cls-5" transform="translate(302.76 725.59)"><tspan x="0" y="0">int</tspan></text>
    <rect class="cls-7" x="112" y="738.34" width="226.65" height="32"/>
    <text class="cls-1" transform="translate(122 757.59)"><tspan x="0" y="0">total_books_here</tspan></text>
    <path class="cls-8" d="M306.65,744.84h20s2,0,2,2v12s0,2-2,2h-20s-2,0-2-2v-12s0-2,2-2"/>
    <path class="cls-3" d="M315.46,757.34h-1.17l-4.75-7.56h-.05c.01.2.03.43.04.69.02.25.03.53.04.82.01.29.02.58.02.88v5.17h-.94v-9h1.16l4.73,7.53h.04c0-.14-.02-.35-.03-.61-.01-.27-.02-.55-.04-.86,0-.31-.01-.59-.01-.86v-5.21h.95v9Z"/>
    <path class="cls-3" d="M324.65,757.34h-1.17l-4.75-7.56h-.05c.01.2.03.43.04.69.02.25.03.53.04.82.01.29.02.58.02.88v5.17h-.94v-9h1.16l4.73,7.53h.04c0-.14-.02-.35-.03-.61-.01-.27-.02-.55-.04-.86,0-.31-.01-.59-.01-.86v-5.21h.95v9Z"/>
    <text class="cls-5" transform="translate(274.76 757.59)"><tspan x="0" y="0">int</tspan></text>
    <rect class="cls-6" x="463.24" y="529.21" width="212.54" height="32"/>
    <text class="cls-4" transform="translate(473.24 548.46)"><tspan x="0" y="0">genre</tspan></text>
    <rect class="cls-7" x="463.24" y="561.21" width="212.54" height="32"/>
    <text class="cls-1" transform="translate(473.24 580.46)"><tspan x="0" y="0">genre_ID</tspan></text>
    <path class="cls-3" d="M544.23,571.44c1.63,0,2.95,1.32,2.95,2.95s-1.32,2.95-2.95,2.95c-.39,0-.76-.08-1.1-.21l-.87.87h-.66v.98h-.98v.98h-1.97v-1.97l2.75-2.75c-.08-.28-.13-.57-.13-.86,0-1.63,1.32-2.95,2.95-2.95ZM544.23,570.46c-2.17,0-3.94,1.76-3.94,3.94,0,.18.01.36.04.54l-2.52,2.52c-.09.09-.14.22-.14.35v2.66c0,.27.22.49.49.49h2.95c.27,0,.49-.22.49-.49v-.49h.49c.27,0,.49-.22.49-.49v-.41l.82-.82c.27.06.54.09.82.09,2.17,0,3.94-1.76,3.94-3.94s-1.76-3.94-3.94-3.94ZM544.23,573.41c0,.54.44.98.98.98s.98-.44.98-.98-.44-.98-.98-.98-.98.44-.98.98Z"/>
    <path class="cls-8" d="M643.79,567.71h20s2,0,2,2v12s0,2-2,2h-20s-2,0-2-2v-12s0-2,2-2"/>
    <path class="cls-3" d="M652.6,580.21h-1.17l-4.75-7.56h-.05c.01.2.03.43.04.69.02.25.03.53.04.82.01.29.02.58.02.88v5.17h-.94v-9h1.16l4.73,7.53h.04c0-.14-.02-.35-.03-.61-.01-.27-.02-.55-.04-.86,0-.31-.01-.59-.01-.86v-5.21h.95v9Z"/>
    <path class="cls-3" d="M661.79,580.21h-1.17l-4.75-7.56h-.05c.01.2.03.43.04.69.02.25.03.53.04.82.01.29.02.58.02.88v5.17h-.94v-9h1.16l4.73,7.53h.04c0-.14-.02-.35-.03-.61-.01-.27-.02-.55-.04-.86,0-.31-.01-.59-.01-.86v-5.21h.95v9Z"/>
    <text class="cls-5" transform="translate(609.63 580.46)"><tspan x="0" y="0">int</tspan></text>
    <rect class="cls-7" x="463.24" y="593.21" width="212.54" height="32"/>
    <text class="cls-1" transform="translate(473.24 612.46)"><tspan x="0" y="0">name</tspan></text>
    <path class="cls-8" d="M643.79,599.71h20s2,0,2,2v12s0,2-2,2h-20s-2,0-2-2v-12s0-2,2-2"/>
    <path class="cls-3" d="M652.6,612.21h-1.17l-4.75-7.56h-.05c.01.2.03.43.04.69.02.25.03.53.04.82.01.29.02.58.02.88v5.17h-.94v-9h1.16l4.73,7.53h.04c0-.14-.02-.35-.03-.61-.01-.27-.02-.55-.04-.86,0-.31-.01-.59-.01-.86v-5.21h.95v9Z"/>
    <path class="cls-3" d="M661.79,612.21h-1.17l-4.75-7.56h-.05c.01.2.03.43.04.69.02.25.03.53.04.82.01.29.02.58.02.88v5.17h-.94v-9h1.16l4.73,7.53h.04c0-.14-.02-.35-.03-.61-.01-.27-.02-.55-.04-.86,0-.31-.01-.59-.01-.86v-5.21h.95v9Z"/>
    <text class="cls-5" transform="translate(554.48 612.46)"><tspan x="0" y="0">varchar(50)</tspan></text>
    <rect class="cls-7" x="463.24" y="625.21" width="212.54" height="32"/>
    <text class="cls-1" transform="translate(473.24 644.46)"><tspan x="0" y="0">total_issues</tspan></text>
    <text class="cls-5" transform="translate(639.9 644.46)"><tspan x="0" y="0">int</tspan></text>
    <rect class="cls-7" x="463.24" y="657.21" width="212.54" height="32"/>
    <text class="cls-1" transform="translate(473.24 676.46)"><tspan x="0" y="0">total_revenues</tspan></text>
    <path class="cls-8" d="M643.79,663.71h20s2,0,2,2v12s0,2-2,2h-20s-2,0-2-2v-12s0-2,2-2"/>
    <path class="cls-3" d="M652.6,676.21h-1.17l-4.75-7.56h-.05c.01.2.03.43.04.69.02.25.03.53.04.82.01.29.02.58.02.88v5.17h-.94v-9h1.16l4.73,7.53h.04c0-.14-.02-.35-.03-.61-.01-.27-.02-.55-.04-.86,0-.31-.01-.59-.01-.86v-5.21h.95v9Z"/>
    <path class="cls-3" d="M661.79,676.21h-1.17l-4.75-7.56h-.05c.01.2.03.43.04.69.02.25.03.53.04.82.01.29.02.58.02.88v5.17h-.94v-9h1.16l4.73,7.53h.04c0-.14-.02-.35-.03-.61-.01-.27-.02-.55-.04-.86,0-.31-.01-.59-.01-.86v-5.21h.95v9Z"/>
    <text class="cls-5" transform="translate(611.9 676.46)"><tspan x="0" y="0">int</tspan></text>
    <rect class="cls-7" x="463.24" y="689.21" width="212.54" height="32"/>
    <text class="cls-1" transform="translate(473.24 708.46)"><tspan x="0" y="0">total_books</tspan></text>
    <text class="cls-5" transform="translate(639.9 708.46)"><tspan x="0" y="0">int</tspan></text>
    <rect class="cls-7" x="463.24" y="721.21" width="212.54" height="32"/>
    <text class="cls-1" transform="translate(473.24 740.46)"><tspan x="0" y="0">total_authors</tspan></text>
    <text class="cls-5" transform="translate(639.9 740.46)"><tspan x="0" y="0">int</tspan></text>
    <rect class="cls-7" x="463.24" y="753.21" width="212.54" height="32"/>
    <text class="cls-1" transform="translate(473.24 772.46)"><tspan x="0" y="0">total_publishers</tspan></text>
    <text class="cls-5" transform="translate(639.9 772.46)"><tspan x="0" y="0">int</tspan></text>
    <path class="cls-10" d="M1407.25,3c14.89,0,27,12.11,27,27v779.69c0,14.89-12.11,27-27,27H30c-14.89,0-27-12.11-27-27V30C3,15.11,15.11,3,30,3h1377.25M1407.25,0H30C13.43,0,0,13.43,0,30v779.69c0,16.57,13.43,30,30,30h1377.25c16.57,0,30-13.43,30-30V30C1437.25,13.43,1423.82,0,1407.25,0h0Z"/>
    <text class="cls-2" transform="translate(331.91 42.32)"><tspan x="0" y="0">THE CHAPTERED EMPORIUM DATABASE DESIGN SCHEMA</tspan></text>
  </g>
</svg>